<svg width="22" height="22" viewBox="0 0 22 22" fill="none" xmlns="http://www.w3.org/2000/svg">
<path d="M15.9955 20.8542C14.9597 20.8542 13.8688 20.6067 12.7413 20.13C11.6413 19.6625 10.5322 19.0209 9.45051 18.2417C8.37801 17.4534 7.34217 16.5734 6.36134 15.6109C5.38967 14.63 4.50967 13.5942 3.73051 12.5309C2.94217 11.4309 2.30967 10.3309 1.86051 9.26754C1.38384 8.13087 1.14551 7.03087 1.14551 5.99504C1.14551 5.28004 1.27384 4.60171 1.52134 3.96921C1.77801 3.31837 2.19051 2.71337 2.74967 2.19087C3.45551 1.49421 4.26217 1.14587 5.12384 1.14587C5.48134 1.14587 5.84801 1.22837 6.15967 1.37504C6.51717 1.54004 6.81967 1.78754 7.03967 2.11754L9.16634 5.11504C9.35884 5.38087 9.50551 5.63754 9.60634 5.89421C9.72551 6.16921 9.78967 6.44421 9.78967 6.71004C9.78967 7.05837 9.68884 7.39754 9.49634 7.71837C9.35884 7.96587 9.14801 8.23171 8.88217 8.49754L8.25884 9.14837C8.26801 9.17587 8.27717 9.19421 8.28634 9.21254C8.39634 9.40504 8.61634 9.73504 9.03801 10.23C9.48717 10.7434 9.90884 11.2109 10.3305 11.6417C10.8713 12.1734 11.3205 12.595 11.7422 12.9434C12.2647 13.3834 12.6038 13.6034 12.8055 13.7042L12.7872 13.75L13.4563 13.09C13.7405 12.8059 14.0155 12.595 14.2813 12.4575C14.7855 12.1459 15.4272 12.0909 16.0688 12.3567C16.3072 12.4575 16.5638 12.595 16.8388 12.7875L19.8822 14.9509C20.2213 15.18 20.4688 15.4734 20.6155 15.8217C20.753 16.17 20.8172 16.4909 20.8172 16.8117C20.8172 17.2517 20.7163 17.6917 20.5238 18.1042C20.3313 18.5167 20.093 18.8742 19.7905 19.2042C19.268 19.7817 18.6997 20.1942 18.0397 20.46C17.4072 20.7167 16.7197 20.8542 15.9955 20.8542ZM5.12384 2.52087C4.61967 2.52087 4.15217 2.74087 3.70301 3.18087C3.28134 3.57504 2.98801 4.00587 2.80467 4.47337C2.61217 4.95004 2.52051 5.45421 2.52051 5.99504C2.52051 6.84754 2.72217 7.77337 3.12551 8.72671C3.53801 9.69837 4.11551 10.7067 4.84884 11.715C5.58217 12.7234 6.41634 13.7042 7.33301 14.63C8.24967 15.5375 9.23967 16.3809 10.2572 17.1234C11.2472 17.8475 12.2647 18.4342 13.273 18.8559C14.8405 19.525 16.3072 19.6809 17.5172 19.1767C17.9847 18.9842 18.3972 18.6909 18.773 18.2692C18.9838 18.04 19.1488 17.7925 19.2863 17.4992C19.3963 17.27 19.4513 17.0317 19.4513 16.7934C19.4513 16.6467 19.4238 16.5 19.3505 16.335C19.323 16.28 19.268 16.1792 19.0938 16.06L16.0505 13.8967C15.8672 13.7684 15.7022 13.6767 15.5463 13.6125C15.3447 13.53 15.2622 13.4475 14.9505 13.64C14.7672 13.7317 14.6022 13.8692 14.4188 14.0525L13.7222 14.74C13.3647 15.0884 12.8147 15.1709 12.393 15.015L12.1455 14.905C11.7697 14.7034 11.3297 14.3917 10.8438 13.9792C10.4038 13.6034 9.92717 13.1634 9.34967 12.595C8.90051 12.1367 8.45134 11.6509 7.98384 11.11C7.55301 10.6059 7.24134 10.175 7.04884 9.81754L6.93884 9.54254C6.88384 9.33171 6.86551 9.21254 6.86551 9.08421C6.86551 8.75421 6.98467 8.46087 7.21384 8.23171L7.90134 7.51671C8.08467 7.33337 8.22217 7.15921 8.31384 7.00337C8.38717 6.88421 8.41467 6.78337 8.41467 6.69171C8.41467 6.61837 8.38717 6.50837 8.34134 6.39837C8.27717 6.25171 8.17634 6.08671 8.04801 5.91254L5.92134 2.90587C5.82967 2.77754 5.71967 2.68587 5.58217 2.62171C5.43551 2.55754 5.27967 2.52087 5.12384 2.52087ZM12.7872 13.7592L12.6405 14.3825L12.888 13.7409C12.8422 13.7317 12.8055 13.7409 12.7872 13.7592Z" fill="#15BB44"/>
</svg>
