<svg width="59" height="59" viewBox="0 0 59 59" fill="none" xmlns="http://www.w3.org/2000/svg">
<path d="M13.8281 27.1953C12.643 27.1953 11.4845 27.5467 10.499 28.2052C9.51364 28.8636 8.7456 29.7995 8.29207 30.8944C7.83853 31.9893 7.71987 33.1941 7.95108 34.3565C8.18229 35.5189 8.75299 36.5866 9.59101 37.4246C10.429 38.2626 11.4967 38.8333 12.6591 39.0645C13.8215 39.2958 15.0263 39.1771 16.1212 38.7236C17.2162 38.27 18.152 37.502 18.8104 36.5166C19.4689 35.5312 19.8203 34.3726 19.8203 33.1875C19.8185 31.5988 19.1866 30.0757 18.0633 28.9524C16.9399 27.829 15.4168 27.1971 13.8281 27.1953ZM13.8281 35.9531C13.2811 35.9531 12.7464 35.7909 12.2916 35.487C11.8368 35.1831 11.4823 34.7512 11.273 34.2459C11.0637 33.7405 11.0089 33.1844 11.1156 32.648C11.2224 32.1115 11.4858 31.6187 11.8725 31.2319C12.2593 30.8451 12.7521 30.5817 13.2886 30.475C13.8251 30.3683 14.3811 30.4231 14.8865 30.6324C15.3918 30.8417 15.8238 31.1962 16.1277 31.651C16.4316 32.1058 16.5938 32.6405 16.5938 33.1875C16.5938 33.921 16.3024 34.6244 15.7837 35.1431C15.2651 35.6617 14.5616 35.9531 13.8281 35.9531Z" fill="black"/>
<path d="M47.0156 27.1953C45.8305 27.1953 44.672 27.5467 43.6865 28.2052C42.7011 28.8636 41.9331 29.7995 41.4796 30.8944C41.026 31.9893 40.9074 33.1941 41.1386 34.3565C41.3698 35.5189 41.9405 36.5866 42.7785 37.4246C43.6165 38.2626 44.6842 38.8333 45.8466 39.0645C47.009 39.2958 48.2138 39.1771 49.3087 38.7236C50.4037 38.27 51.3395 37.502 51.9979 36.5166C52.6564 35.5312 53.0078 34.3726 53.0078 33.1875C53.006 31.5988 52.3741 30.0757 51.2508 28.9524C50.1274 27.829 48.6043 27.1971 47.0156 27.1953ZM47.0156 35.9531C46.4686 35.9531 45.9339 35.7909 45.4791 35.487C45.0243 35.1831 44.6698 34.7512 44.4605 34.2459C44.2512 33.7405 44.1964 33.1844 44.3031 32.648C44.4099 32.1115 44.6733 31.6187 45.06 31.2319C45.4468 30.8451 45.9396 30.5817 46.4761 30.475C47.0126 30.3683 47.5686 30.4231 48.074 30.6324C48.5793 30.8417 49.0113 31.1962 49.3152 31.651C49.6191 32.1058 49.7813 32.6405 49.7813 33.1875C49.7813 33.921 49.4899 34.6244 48.9712 35.1431C48.4526 35.6617 47.7491 35.9531 47.0156 35.9531Z" fill="black"/>
<path d="M55.0129 22.2449L44.25 20.2813L35.0871 12.6787C34.179 11.9327 33.0405 11.5245 31.8653 11.5235H18.3661C17.6053 11.5216 16.8541 11.6919 16.1684 12.0214C15.4828 12.351 14.8805 12.8313 14.4067 13.4264L8.55408 20.2813H4.60937C3.50952 20.2825 2.45505 20.7199 1.67733 21.4977C0.899616 22.2754 0.462158 23.3298 0.460938 24.4297V29.5C0.462432 30.8443 0.997104 32.1331 1.94765 33.0836C2.89819 34.0342 4.18698 34.5688 5.53125 34.5703H6.58507C6.38052 33.5036 6.41414 32.4048 6.68352 31.3525C6.9529 30.3003 7.45139 29.3205 8.14336 28.4832C8.83534 27.646 9.70371 26.9719 10.6864 26.5092C11.6691 26.0465 12.7419 25.8065 13.8281 25.8065C14.9143 25.8065 15.9871 26.0465 16.9698 26.5092C17.9525 26.9719 18.8209 27.646 19.5129 28.4832C20.2049 29.3205 20.7033 30.3003 20.9727 31.3525C21.2421 32.4048 21.2757 33.5036 21.0712 34.5703H39.7726C39.568 33.5036 39.6016 32.4048 39.871 31.3525C40.1404 30.3003 40.6389 29.3205 41.3309 28.4832C42.0228 27.646 42.8912 26.9719 43.8739 26.5092C44.8566 26.0465 45.9294 25.8065 47.0156 25.8065C48.1018 25.8065 49.1746 26.0465 50.1573 26.5092C51.14 26.9719 52.0084 27.646 52.7004 28.4832C53.3924 29.3205 53.8908 30.3003 54.1602 31.3525C54.4296 32.4048 54.4632 33.5036 54.2587 34.5703H54.3906C55.4905 34.5691 56.5449 34.1316 57.3227 33.3539C58.1004 32.5762 58.5378 31.5217 58.5391 30.4219V26.3463C58.544 25.3525 58.19 24.3904 57.5422 23.6368C56.8943 22.8833 55.9961 22.389 55.0129 22.2449ZM20.7422 18.8985C20.7422 19.2652 20.5965 19.6169 20.3372 19.8762C20.0778 20.1356 19.7261 20.2813 19.3594 20.2813H13.2802C13.148 20.2813 13.0185 20.2435 12.9072 20.1723C12.7958 20.101 12.7072 19.9993 12.6519 19.8793C12.5965 19.7592 12.5768 19.6258 12.5949 19.4949C12.6131 19.3639 12.6684 19.2409 12.7544 19.1404L16.7779 14.4274C16.9078 14.2755 17.0691 14.1536 17.2506 14.07C17.4322 13.9865 17.6297 13.9433 17.8295 13.9434H19.3594C19.7261 13.9434 20.0778 14.0891 20.3372 14.3484C20.5965 14.6077 20.7422 14.9594 20.7422 15.3262V18.8985ZM27.6562 25.3516H25.8125C25.4458 25.3516 25.094 25.2059 24.8347 24.9466C24.5754 24.6872 24.4297 24.3355 24.4297 23.9688C24.4297 23.602 24.5754 23.2503 24.8347 22.991C25.094 22.7316 25.4458 22.586 25.8125 22.586H27.6562C28.023 22.586 28.3747 22.7316 28.634 22.991C28.8934 23.2503 29.0391 23.602 29.0391 23.9688C29.0391 24.3355 28.8934 24.6872 28.634 24.9466C28.3747 25.2059 28.023 25.3516 27.6562 25.3516ZM38.5435 20.3151L25.3483 20.2845C24.9821 20.2836 24.6313 20.1376 24.3726 19.8783C24.114 19.6191 23.9687 19.2679 23.9687 18.9017V15.3262C23.9687 14.9594 24.1144 14.6077 24.3738 14.3484C24.6331 14.0891 24.9848 13.9434 25.3516 13.9434H31.9831C32.2939 13.9434 32.5956 14.0481 32.8396 14.2407L38.9733 19.0805C39.0864 19.1695 39.1688 19.2916 39.2092 19.4298C39.2496 19.5679 39.2458 19.7152 39.1985 19.8511C39.1512 19.987 39.0627 20.1047 38.9453 20.1879C38.8278 20.2711 38.6874 20.3156 38.5435 20.3151Z" fill="black"/>
</svg>
