<svg width="512" height="512" viewBox="0 0 512 512" fill="none" xmlns="http://www.w3.org/2000/svg">
<path d="M256 469.333C138.453 469.333 42.6667 373.547 42.6667 256C42.6667 216.107 53.7601 177.28 74.6667 143.573C80.8534 133.547 94.0801 130.56 104.107 136.747C114.133 142.933 117.12 156.16 110.933 166.186C94.2934 193.066 85.3334 224.213 85.3334 256C85.3334 350.08 161.92 426.667 256 426.667C350.08 426.667 426.667 350.08 426.667 256C426.667 161.92 350.08 85.3333 256 85.3333C244.267 85.3333 234.667 75.7333 234.667 64C234.667 52.2666 244.267 42.6666 256 42.6666C373.547 42.6666 469.333 138.453 469.333 256C469.333 373.547 373.547 469.333 256 469.333Z" fill="white"/>
</svg>
