<svg width="22" height="22" viewBox="0 0 22 22" fill="none" xmlns="http://www.w3.org/2000/svg">
<path d="M4.95879 19.9375C3.93213 19.9375 3.28129 19.5892 2.86879 19.1767C2.06213 18.3701 1.49379 16.6559 3.30879 13.0167L4.10629 11.4309C4.20713 11.2201 4.20713 10.7801 4.10629 10.5692L3.30879 8.98338C1.48463 5.34422 2.06213 3.62088 2.86879 2.82338C3.66629 2.01672 5.38963 1.43922 9.01963 3.26338L16.8663 7.18672C18.8188 8.15838 19.8913 9.51505 19.8913 11.0001C19.8913 12.4851 18.8188 13.8417 16.8755 14.8134L9.02879 18.7367C7.25046 19.6259 5.93046 19.9375 4.95879 19.9375ZM4.95879 3.43755C4.46379 3.43755 4.07879 3.55672 3.84046 3.79505C3.17129 4.45505 3.43713 6.16922 4.53713 8.36005L5.33463 9.95505C5.62796 10.5509 5.62796 11.4492 5.33463 12.0451L4.53713 13.6309C3.43713 15.8309 3.17129 17.5359 3.84046 18.1959C4.50046 18.8651 6.21463 18.5992 8.41463 17.4992L16.2613 13.5759C17.7005 12.8609 18.5163 11.9167 18.5163 10.9909C18.5163 10.0651 17.6913 9.12088 16.2521 8.40588L8.40546 4.49172C7.01213 3.79505 5.81129 3.43755 4.95879 3.43755Z" fill="#15BB44"/>
<path d="M9.9373 11.6875H4.9873C4.61147 11.6875 4.2998 11.3758 4.2998 11C4.2998 10.6242 4.61147 10.3125 4.9873 10.3125H9.9373C10.3131 10.3125 10.6248 10.6242 10.6248 11C10.6248 11.3758 10.3131 11.6875 9.9373 11.6875Z" fill="#15BB44"/>
</svg>
