<svg width="40" height="40" viewBox="0 0 40 40" fill="none" xmlns="http://www.w3.org/2000/svg">
<path d="M25.0011 37.9167H15.0011C12.8011 37.9167 10.9677 37.7001 9.41772 37.2334C8.85106 37.0668 8.48439 36.5167 8.51772 35.9334C8.93439 30.95 13.9844 27.0333 20.0011 27.0333C26.0177 27.0333 31.0511 30.9334 31.4844 35.9334C31.5344 36.5334 31.1677 37.0668 30.5844 37.2334C29.0344 37.7001 27.2011 37.9167 25.0011 37.9167ZM11.2011 35.1C12.3011 35.3167 13.5511 35.4167 15.0011 35.4167H25.0011C26.4511 35.4167 27.7011 35.3167 28.8011 35.1C27.9177 31.9 24.2677 29.5333 20.0011 29.5333C15.7344 29.5333 12.0844 31.9 11.2011 35.1Z" fill="#15BB44"/>
<path d="M25.0007 3.33325H15.0007C6.66732 3.33325 3.33398 6.66658 3.33398 14.9999V24.9999C3.33398 31.2999 5.23399 34.7499 9.76732 36.0332C10.134 31.6999 14.584 28.2832 20.0007 28.2832C25.4173 28.2832 29.8673 31.6999 30.234 36.0332C34.7673 34.7499 36.6673 31.2999 36.6673 24.9999V14.9999C36.6673 6.66658 33.334 3.33325 25.0007 3.33325ZM20.0007 23.6166C16.7007 23.6166 14.034 20.9333 14.034 17.6333C14.034 14.3333 16.7007 11.6666 20.0007 11.6666C23.3007 11.6666 25.9673 14.3333 25.9673 17.6333C25.9673 20.9333 23.3007 23.6166 20.0007 23.6166Z" stroke="#15BB44" stroke-width="2.5" stroke-linecap="round" stroke-linejoin="round"/>
<path d="M19.9989 24.8667C16.0156 24.8667 12.7822 21.6168 12.7822 17.6334C12.7822 13.6501 16.0156 10.4167 19.9989 10.4167C23.9822 10.4167 27.2156 13.6501 27.2156 17.6334C27.2156 21.6168 23.9822 24.8667 19.9989 24.8667ZM19.9989 12.9167C17.3989 12.9167 15.2822 15.0334 15.2822 17.6334C15.2822 20.2501 17.3989 22.3667 19.9989 22.3667C22.5989 22.3667 24.7156 20.2501 24.7156 17.6334C24.7156 15.0334 22.5989 12.9167 19.9989 12.9167Z" fill="#15BB44"/>
</svg>
